<svg class="icon" style="width:128px;height:128px;" viewBox="0 0 1024 1024" version="1.1" xmlns="http://www.w3.org/2000/svg"><path d="M512 15.36333748c-274.33855052 0-496.67549867 222.36283891-496.67549867 496.62371713S237.70028563 1008.63666252 512 1008.63666252 1008.63666252 786.27382361 1008.63666252 512 786.23498747 15.36333748 512 15.36333748z m39.0173835 769.62889324v1.87708048a82.04783565 82.04783565 0 0 1-4.40143011 25.25644169 46.75872237 46.75872237 0 0 1-13.4114165 21.24337303c-6.03254835 5.17815309-13.65737876 7.37886815-22.7709282 6.60214519s-19.79349017-6.88694361-31.85858686-18.1235358q-31.81975072-28.67402272-67.43249858-59.88534045t-66.1250149-57.46455388q-35.59980247-29.95561561-71.19960494-59.27690745c-4.58266548 0.42719763-9.15238558 0.63432375-13.76094183 0.63432375a104.8576 104.8576 0 0 1-11.81913441 0.59548761h-10.6411046q-16.82899753 0-27.4183206-10.25274311a33.19196128 33.19196128 0 0 1-10.64110458-24.59622717v-157.41585381h0.60843298l-0.60843298-0.63432377q0-17.4503759 10.925903-28.68696809a36.24707161 36.24707161 0 0 1 27.18530371-11.24953758h35.63863862q57.39982697-48.68758439 104.24916701-87.40722411 19.96178015-16.82899753 39.30218192-32.77770903t34.95253333-29.02354805c10.35630617-8.72518795 19.18505718-16.02638381 26.27912692-21.89064217s11.3919368-9.33362094 13.08778193-10.57637769q18.68018725-13.72210569 30.29219556-12.47934892a23.72888652 23.72888652 0 0 1 18.12353579 11.21070143 64.07964445 64.07964445 0 0 1 9.06176791 24.36321027 150.45123792 150.45123792 0 0 1 2.52434963 26.2144v503.74367763zM636.27567408 622.69596761a26.95228682 26.95228682 0 0 1-7.84490193-19.34040178 28.82936731 28.82936731 0 0 1 1.87708049-9.96794469h-0.63432375a82.04783565 82.04783565 0 0 1 7.52126736-13.16545423c2.91271111-4.15546785 5.67007763-8.36271724 8.36271723-12.76414736a71.3808403 71.3808403 0 0 0 6.91283437-14.9778078 64.64924128 64.64924128 0 0 0 2.7703119-20.2983601 62.37085392 62.37085392 0 0 0-2.7703119-19.68992712 82.56565097 82.56565097 0 0 0-6.91283437-15.28849698c-2.69263961-4.58266548-5.4629515-8.90642331-8.36271723-13.12661807a54.53889739 54.53889739 0 0 1-6.88694361-13.08778193 25.70953008 25.70953008 0 0 1-1.87708049-9.96794469 26.74516069 26.74516069 0 0 1 7.84490193-19.32745639 25.25644169 25.25644169 0 0 1 19.0167672-8.12970034 20.0006163 20.0006163 0 0 1 14.36937482 5.33349768 88.79238005 88.79238005 0 0 1 10.60226843 12.16865974 188.31648237 188.31648237 0 0 1 20.93268386 36.50597927q7.76722963 18.40833422 7.76722964 44.6356796 0 25.01047941-8.12970034 44.98520494a154.25718045 154.25718045 0 0 1-20.6090493 36.24707161 87.21304336 87.21304336 0 0 1-10.60226844 12.16865975 20.0653432 20.0653432 0 0 1-14.36937481 5.3205523 25.55418548 25.55418548 0 0 1-18.97793106-8.23326341z m179.94081975-30.57699398a239.23067259 239.23067259 0 0 1-22.80976435 54.27998973 259.3736881 259.3736881 0 0 1-78.31956543 84.92171061 28.63518657 28.63518657 0 0 1-17.4503759 5.56651456 30.49932169 30.49932169 0 0 1-19.93588939-53.63272058 4.91924543 4.91924543 0 0 1 1.2039206-0.91912217 7.53421275 7.53421275 0 0 0 1.29453827-0.91912217l0.59548761-0.63432376a188.74368 188.74368 0 0 0 32.49291061-28.09148049 209.92232613 209.92232613 0 0 0 26.2144-35.26322253 178.07668464 178.07668464 0 0 0 17.48921205-40.5837748 160.18616573 160.18616573 0 0 0 6.20083832-44.66157038q0-46.77166775-23.69005037-85.5301436a211.41104514 211.41104514 0 0 0-59.30279822-63.63950144c-8.72518795-6.23967447-13.12661808-14.55061017-13.12661808-24.98458864a30.95241008 30.95241008 0 0 1 30.61583014-30.57699397 28.29860661 28.29860661 0 0 1 18.73196878 6.84810747 271.99543625 271.99543625 0 0 1 43.03045214 37.78757214 250.6873363 250.6873363 0 0 1 34.33115497 46.82344928A242.72592592 242.72592592 0 0 1 816.21649383 472.84021728a218.103808 218.103808 0 0 1 8.11675497 59.31574361 220.31746845 220.31746845 0 0 1-8.11675497 59.95006736z m0 0" fill="#EB7F00" /></svg>