<svg class="icon" style="width:128px;height:128px;" viewBox="0 0 1024 1024" version="1.1" xmlns="http://www.w3.org/2000/svg"><path d="M512 16C238.064 16 16 238.064 16 512c0 273.936 222.064 496 496 496s496-222.064 496-496c0-273.936-222.064-496-496-496zM268.944 616.704l-1.024 3.024v3.2c0 5.92-0.224 15.472-0.464 25.584-0.112 4.608-0.224 9.376-0.32 14.144h-76.32c-0.288-14.592 0.752-40.928 0.752-52.064 5.584-16.4 24.048-18.752 39.456-25.36 16.944-7.248 35.728-15.664 52.624-22.704 4.816-1.328 9.648-2.672 14.464-4 5.76-4.016 11.392-17.376 14.464-24.032l6.848-1.696c-1.552-8.768-6.912-9.44-9.136-15.664-0.88-9.344-1.744-18.688-2.624-28.032 0.032 0.432-6.304-1.168-7.136-1.696-8.944-5.68-9.12-28.752-9.968-38.352-0.4-4.384 5.616-7.984 3.952-16.032-9.792-47.088 4.224-78.912 26.416-86.224 15.392-6.32 44.128-18.064 70.928-1.328l6.656 6.256 10.448 1.824c0.8 7.648 2.016 15.632 3.744 23.952-0.256 0.576-0.768 1.52-1.152 2.24-2.016 3.76-5.408 10.016-4.656 18.288 0.16 1.744 0.288 3.808 0.448 6.096 1.216 18.192 3.056 44.8 17.696 58.496-0.256 2.624-0.64 5.152-1.04 7.44-0.768 4.24-2.384 10.288-4.816 13.76-2.704 3.808-8.096 3.84-10.48 8.304-3.44 6.4-1.504 15.408-3.664 22.336-2.464 7.856-8.736 8.4-9.216 18.688l9.216 1.344c0.544 1.184 1.2 2.608 1.888 4.144-13.984 5.84-28.848 12.32-43.28 18.624-9.808 4.272-19.52 8.528-28.848 12.496-4.24 1.824-8.832 3.424-13.68 5.136-19.216 6.736-43.104 15.136-52.176 41.808z m488.112 79.008H285.664c-0.4-20.48 1.056-57.408 1.056-73.04 7.824-23.024 33.728-26.32 55.376-35.584 23.76-10.16 50.112-21.968 73.824-31.84l20.304-5.616c8.08-5.648 15.984-24.384 20.304-33.696l9.616-2.368c-2.176-12.304-9.696-13.264-12.832-21.984a32646.87 32646.87 0 0 1-3.68-39.328c0.048 0.624-8.832-1.632-10-2.368-12.544-7.984-12.784-40.336-14-53.808-0.544-6.16 7.872-11.2 5.536-22.48-13.728-66.064 5.936-110.72 37.056-120.96 21.584-8.88 61.904-25.36 99.52-1.872l9.344 8.784 15.104 2.64c7.568 4.432 12.416 19.168 12.416 19.168 3.984 16.256 4.368 31.36 4.016 48.048-0.144 6.432-3.792 36.192-2.8 45.312 0.816 7.52 2.672 8.128 5.584 14.32 5.088 10.8 3.392 25.68 1.44 36.56-1.072 5.952-3.328 14.432-6.768 19.296-3.792 5.36-11.36 5.392-14.72 11.648-4.832 8.992-2.096 21.632-5.136 31.344-3.456 11.024-12.256 11.792-12.928 26.224 4.32 0.624 8.624 1.248 12.928 1.872 4.32 9.312 12.224 28.064 20.304 33.696l20.304 5.616c23.712 9.872 50.064 21.68 73.824 31.84 21.632 9.264 47.536 12.56 55.36 35.584-0.016 15.584 1.44 52.496 1.04 72.992z m94.512-33.072H775.6c-0.096-4.768-0.208-9.536-0.32-14.144-0.24-10.112-0.464-19.648-0.464-25.584v-3.2l-1.024-3.024c-9.056-26.672-32.96-35.072-52.16-41.808-4.848-1.696-9.44-3.312-13.68-5.136-9.328-4-19.072-8.24-28.896-12.528-14.512-6.336-29.472-12.848-43.52-18.72 0.688-1.488 1.296-2.864 1.84-4.016l6.848-1.696c-1.552-8.768-6.912-9.44-9.136-15.664-0.88-9.344-1.76-18.688-2.624-28.032 0.032 0.432-6.304-1.168-7.136-1.696-6.016-3.824-8.064-15.52-9.008-25.696a30.077 30.077 0 0 0 5.04-5.488c6-8.48 8.832-20.56 9.984-26.992 2.336-13.04 4.576-32.224-2.976-48.224-1.2-2.56-2.288-4.432-3.072-5.792-0.208-0.368-0.416-0.704-0.608-1.056-0.032-0.208-0.112-0.608-0.192-1.312-0.144-1.328-0.08-3.936 0.096-7.12 5.232-9.6 12.56-16.112 21.12-18.928 15.376-6.32 44.128-18.064 70.928-1.328l6.656 6.256 10.768 1.872c5.392 3.168 8.848 13.664 8.848 13.664 2.832 11.584 3.12 22.352 2.848 34.24-0.112 4.592-2.704 25.792-2 32.304 0.576 5.36 1.904 5.792 3.984 10.208 3.632 7.696 2.416 18.304 1.024 26.064-0.768 4.24-2.368 10.288-4.832 13.76-2.704 3.808-8.096 3.84-10.48 8.304-3.44 6.4-1.504 15.408-3.664 22.336-2.464 7.856-8.736 8.4-9.216 18.688l9.216 1.344c3.088 6.64 8.72 20 14.48 24.032 4.816 1.328 9.648 2.672 14.464 4 16.896 7.024 35.68 15.456 52.624 22.704 15.424 6.592 33.888 8.96 39.472 25.36-0.016 11.12 1.024 37.456 0.736 52.048z" fill="#197AFF" /></svg>