<svg class="icon" style="width:128px;height:128px;" viewBox="0 0 1024 1024" version="1.1" xmlns="http://www.w3.org/2000/svg"><path d="M512 0C230.4 0 0 230.4 0 512s230.4 512 512 512 512-230.4 512-512S793.6 0 512 0z m224.711111 722.488889c-5.688889 11.377778-14.222222 17.066667-25.6 17.066667h-122.311111c-8.533333 31.288889-39.822222 56.888889-76.8 56.888888s-68.266667-25.6-76.8-59.733333H312.888889c-11.377778 0-22.755556-5.688889-25.6-17.066667-5.688889-11.377778-2.844444-22.755556 2.844444-31.288888l31.288889-42.666667c8.533333-11.377778 11.377778-22.755556 11.377778-34.133333v-159.288889c0-68.266667 39.822222-128 99.555556-156.444445C440.888889 258.844444 472.177778 227.555556 512 227.555556s71.111111 31.288889 76.8 71.111111c17.066667 8.533333 34.133333 19.911111 48.355556 34.133333 34.133333 34.133333 51.2 76.8 51.2 125.155556v159.288888c0 11.377778 2.844444 25.6 11.377777 34.133334l31.288889 42.666666c8.533333 5.688889 11.377778 17.066667 5.688889 28.444445z" fill="#0295EB" /></svg>